# xmcd
#
# Track frame offsets:
#  150
#  11447
#  25533
#  38201
#  52246
#  65753
#  80886
#  96691
#  123603
#  135657
#  151740
#  170158
#  187373
#  202742
#  214007
#  228801
#
# Disc length: 3269 seconds
#
# Revision: 0
# Processed by: cddbd v1.5.2PL0 Copyright (c) Steve Scherf et al.
# Submitted via: Collectorz.com_Music_Collector 6.9
#
DISCID=e70cc310
DTITLE=Various Artist - THE FIRST LADIES OF JAZZ
DYEAR=1900
DGENRE=
TTITLE0=Ella Fitzgerald - That Old Black Magic
TTITLE1=Billie Holiday - Good Morning Heartache
TTITLE2=Carmen McRae - I Was Doing All Right
TTITLE3=Peggy Lee - Black Coffee
TTITLE4=Sarah Vaughan - Misty
TTITLE5=Anita O'Day - Let Me Off Uptown
TTITLE6=Dinah Washington - You're Crying
TTITLE7=Blossom Dearie - Someone To Watch Over Me
TTITLE8=Sarah Vaughan - Shulie A Bop
TTITLE9=Ella Fitzgerald - Ev'ry Time We Say Goodbye
TTITLE10=Carmen McRae - How Long Has This Been Going On?
TTITLE11=Billie Holiday - But Not For Me
TTITLE12=Peggy Lee - It Ain't Necessarily So
TTITLE13=Dinah Washington - What A Diff'rence A Day Made
TTITLE14=Sarah Vaughan - Lover Man
TTITLE15=Ella Fitzgerald - A Fine Romance
EXTD=
EXTT0=
EXTT1=
EXTT2=
EXTT3=
EXTT4=
EXTT5=
EXTT6=
EXTT7=
EXTT8=
EXTT9=
EXTT10=
EXTT11=
EXTT12=
EXTT13=
EXTT14=
EXTT15=
PLAYORDER=
